PathFileType	4	(X/Y/Z)	/Users/mathieubourgeois/Desktop/Analyse/Traitement/Sujet_03/Data/Transformed_Sujet_03_velo_80.trc
DataRate	CameraRate	NumFrames	NumMarkers	Units	OrigDataRate	OrigDataStartFrame	OrigNumFrames
120.000000	120.000000	6	36	mm	120.000000	1634	1868
Frame#	Time	RFHD			LFHD			RBHD			LBHD			C7			CLAV			RSHO			LSHO			STRN			T10			RBWT			LBWT			RFWT			LFWT			RKNI			LKNI			RKNE			LKNE			LANI			RANI			LANE			RANE			LTOE			RTOE			LHEE			RHEE			RHUM			LHUM			RRAD			LRAD			RWRA			RWRB			LWRA			LWRB			LCAR			RCAR			
		X1	Y1	Z1	X2	Y2	Z2	X3	Y3	Z3	X4	Y4	Z4	X5	Y5	Z5	X6	Y6	Z6	X7	Y7	Z7	X8	Y8	Z8	X9	Y9	Z9	X10	Y10	Z10	X11	Y11	Z11	X12	Y12	Z12	X13	Y13	Z13	X14	Y14	Z14	X15	Y15	Z15	X16	Y16	Z16	X17	Y17	Z17	X18	Y18	Z18	X19	Y19	Z19	X20	Y20	Z20	X21	Y21	Z21	X22	Y22	Z22	X23	Y23	Z23	X24	Y24	Z24	X25	Y25	Z25	X26	Y26	Z26	X27	Y27	Z27	X28	Y28	Z28	X29	Y29	Z29	X30	Y30	Z30	X31	Y31	Z31	X32	Y32	Z32	X33	Y33	Z33	X34	Y34	Z34	X35	Y35	Z35	X36	Y36	Z36	

1635	13.61666666666667	152.9661254882812	1560.606079101562	121.5308303833007	134.1640472412109	1563.798095703125	-30.67353630065926	44.49695587158202	1635.161987304688	140.0775909423827	18.06711196899414	1654.522216796875	-5.847102165222267	-104.1607284545899	1552.991333007812	61.75905227661122	-60.55875396728516	1398.835083007812	56.15651321411124	-44.99203109741214	1479.130859375	231.9398345947265	-66.45267486572264	1511.823486328125	-122.1836471557618	-160.5625610351562	1260.47607421875	52.61469268798818	-319.5066528320312	1452.655883789062	47.03802108764635	-522.8418579101562	1268.680786132812	111.5375442504881	-522.0421142578125	1261.719970703125	-11.05767440795912	-374.1309204101562	1205.631225585938	176.785202026367	-374.5315246582031	1179.738403320312	-67.33953857421886	-38.72620391845705	914.6820068359375	123.807991027832	-196.5166778564453	676.9459228515625	-47.62952041625983	-47.55451965332034	949.4130249023438	236.8603363037109	-197.6568603515625	727.3930053710938	-154.8227081298829	-391.6969604492188	348.8671264648438	-56.98620986938484	-192.0552825927734	579.5293579101562	113.6903228759765	-412.7016296386719	333.2685852050781	-143.9346466064454	-217.8838500976563	560.43701171875	202.8507995605468	-255.4098968505859	196.2588958740234	-98.03296661376957	-30.47966384887697	461.8639221191406	151.8222961425781	-483.5064392089844	335.2258605957031	-99.89817810058601	-291.650146484375	539.0881958007812	155.9876403808593	25.57817077636716	1180.04345703125	251.7740478515624	15.52987003326418	1198.356689453125	-144.3952941894532	78.82209777832027	1204.3095703125	309.1080017089843	63.8645820617676	1232.922241210938	-201.6169738769532	284.0212707519531	1040.9140625	217.6678924560547	273.8081665039062	1027.848510742188	299.5670471191406	251.2103118896485	1058.670288085938	-126.9745254516602	231.8955383300782	1047.917358398438	-205.7301177978516	329.5769348144531	1034.628662109375	-221.3161926269532	375.9868774414062	1031.950805664062	301.4194946289062	
1636	13.625	152.7474365234375	1560.620361328125	121.5475387573241	133.8456726074219	1563.732177734375	-30.66110992431648	44.29868698120116	1635.182250976562	140.1015624999999	17.76202011108398	1654.489135742188	-5.819402694702248	-104.4450607299805	1552.950805664062	61.81499862670888	-60.83137130737305	1398.815063476562	56.22334671020499	-45.00073242187503	1479.534790039062	231.8333435058593	-66.6452178955078	1511.725952148438	-122.2156448364259	-160.8711395263672	1260.4853515625	52.71385192871084	-319.7586059570312	1452.620239257812	47.13420486450182	-523.0377197265625	1268.502075195312	111.3948440551756	-522.1392822265625	1261.667236328125	-11.20140743255629	-374.4049377441406	1205.336791992188	176.7741699218749	-374.5478515625	1179.795043945312	-67.26667785644543	-39.72342681884767	909.0634765625	123.8202514648437	-192.4767456054688	680.4789428710938	-48.42863845825202	-49.47768020629886	944.0534057617188	236.8805694580078	-193.2476043701172	730.6919555664062	-155.8178863525391	-396.9727783203125	358.5867309570312	-56.60704421997077	-183.7282867431641	568.7800903320312	114.0590286254882	-418.9104919433594	343.3637390136719	-143.323471069336	-210.2317199707032	549.8895263671875	202.8786468505859	-264.3912963867188	203.1787109375	-97.91644287109379	-20.83210372924806	453.9072570800781	150.7679901123047	-489.6312866210938	346.8721313476562	-99.10924530029304	-283.5644226074219	526.8920288085938	155.8872375488281	25.51282119750973	1180.164428710938	251.7008819580077	15.52322101593019	1198.319580078125	-144.6636505126954	78.8039169311523	1204.422485351562	308.9550170898437	63.83449554443362	1232.935668945312	-201.777572631836	283.9757385253906	1040.93994140625	217.6248626708984	273.7363281249999	1027.892578125	299.5237426757812	251.1899719238282	1058.748413085938	-127.0869369506836	231.9790954589844	1047.910766601562	-205.8941497802735	329.5969848632812	1034.6220703125	-221.376937866211	375.9139099121093	1031.990234375	301.3838806152344	
1637	13.63333333333333	152.5059204101562	1560.599609375	121.5414276123046	133.5195922851562	1563.673217773438	-30.6661624908448	44.06557083129881	1635.170166015625	140.0954437255858	17.44925880432129	1654.42822265625	-5.829475879669289	-104.7733917236328	1552.88330078125	61.82158279418935	-61.09421157836915	1398.767700195312	56.25332260131827	-45.27632904052737	1479.523559570312	231.7953796386718	-66.84311676025389	1511.593872070312	-122.3138885498048	-161.2241363525391	1260.450439453125	52.71557998657217	-320.0049133300781	1452.5537109375	47.15697479248033	-523.249267578125	1268.270141601562	111.3155670166014	-522.2832641601562	1261.56982421875	-11.30731201171889	-374.6830444335938	1204.9580078125	176.7802886962889	-374.5837097167969	1179.823486328125	-67.22932434082043	-41.50673675537111	902.9949951171875	123.8652038574218	-188.3202209472656	684.3185424804688	-49.16860580444342	-51.67648696899417	937.8767700195312	236.8944702148437	-188.506362915039	734.309326171875	-156.7995147705079	-402.1778259277344	368.7096557617188	-56.23130798339851	-173.6915740966797	556.8161010742188	115.5982360839843	-424.4674987792969	353.9872436523438	-142.817352294922	-202.9307403564453	538.4639892578125	202.7193603515624	-272.7044372558594	210.8239440917969	-97.80316925048832	-12.3305015563965	445.1396179199219	150.2467651367187	-495.0567016601562	359.0462646484375	-98.46060180664071	-276.4688415527344	514.6765747070312	156.7930297851562	25.44167900085446	1180.22607421875	251.5628662109374	15.49340057373049	1198.2353515625	-144.9349822998048	78.75200653076168	1204.504028320312	308.7327270507812	63.81430816650393	1232.920166015625	-202.081771850586	283.931396484375	1040.960205078125	217.5521545410156	273.6660156249999	1027.94140625	299.4494018554688	251.1921997070313	1058.81396484375	-127.2129898071289	232.0052947998047	1047.931762695312	-206.0434265136719	329.6071166992188	1034.605346679688	-221.4666137695313	375.8407897949218	1032.021362304688	301.3252563476562	
1638	13.64166666666667	152.2214660644531	1560.560913085938	121.5081863403319	133.2355499267578	1563.599365234375	-30.68481826782234	43.80712890624999	1635.121948242188	140.0715179443358	17.14969062805176	1654.354858398438	-5.863722801208596	-105.0632400512695	1552.767211914062	61.74644470214833	-61.40154266357423	1398.666625976562	56.22112274169913	-45.58868789672854	1479.490234375	231.712905883789	-67.04134368896483	1511.443481445312	-122.4394531250001	-161.6122436523438	1260.37451171875	52.62882995605459	-320.2667846679688	1452.43896484375	47.15839004516588	-523.4673461914062	1267.997436523438	111.2583389282225	-522.46435546875	1261.4326171875	-11.38343524932875	-374.9396362304688	1204.554077148438	176.7853393554686	-374.6366577148438	1179.865966796875	-67.22261047363293	-43.30834960937501	895.6605834960938	123.1593170166015	-183.9186859130859	688.5056762695312	-49.86503982543952	-54.23461914062503	930.9342651367188	236.8933410644531	-183.4552459716797	738.2909545898438	-157.7267150878907	-405.878173828125	380.8709106445312	-55.73089218139656	-167.90087890625	545.9552001953125	115.2163925170898	-429.0623168945312	364.7030029296875	-142.2308349609376	-196.1400299072266	526.9037475585938	202.8396606445312	-280.2809753417969	219.1185302734375	-97.74115753173832	-4.531522274017353	435.2245178222656	149.8169250488281	-499.8937377929688	371.6953430175781	-98.0141143798829	-269.1734619140625	502.2462158203125	157.220962524414	25.37907218933102	1180.28125	251.3813018798827	15.44569587707521	1198.140869140625	-145.269760131836	78.72231292724605	1204.554077148438	308.4296874999999	63.77560043334963	1232.8662109375	-202.3872528076173	283.9033508300781	1040.966796875	217.4583129882812	273.5809936523437	1027.961669921875	299.3394775390625	251.1824645996094	1058.837646484375	-127.3628463745118	231.9992218017578	1047.902465820312	-206.153793334961	329.603759765625	1034.590087890625	-221.5876159667969	375.7786254882812	1032.040893554688	301.2361145019531	
1639	13.65	151.9512023925781	1560.520874023438	121.4215164184569	132.9739227294922	1563.54443359375	-30.71264457702645	43.46095657348631	1635.041870117188	140.0419006347655	16.85782051086426	1654.253295898438	-5.921453475952248	-105.3232345581055	1552.637939453125	61.62202835082997	-61.73132705688477	1398.523803710938	56.08278274536124	-46.15821456909183	1479.036376953125	231.718032836914	-67.24798583984374	1511.275634765625	-122.5961532592775	-162.0002593994141	1260.275268554688	52.45520401000967	-320.5076599121094	1452.327026367188	47.12456512451158	-523.6660766601562	1267.654052734375	111.2108154296874	-522.637451171875	1261.290771484375	-11.43425941467299	-375.2136535644531	1204.076416015625	176.7835083007811	-374.7007141113281	1179.91552734375	-67.23251342773449	-45.26242065429689	888.3967895507812	123.7069625854492	-179.1520233154297	693.0103759765625	-50.56921768188483	-57.16399002075198	923.2852783203125	236.8407287597656	-178.1573181152343	742.521728515625	-158.5650177001954	-409.3764343261719	392.1099853515625	-55.58600234985359	-162.2635955810547	534.3175048828125	115.4285049438476	-433.1927490234375	376.2702941894531	-141.955047607422	-190.076416015625	515.0083618164062	203.0358581542968	-287.3564453125	228.5723571777344	-97.63839721679692	2.568666934967023	424.9548950195312	149.3941192626953	-502.386962890625	385.1275024414062	-98.28583526611337	-262.6659240722656	489.2739868164062	157.5009155273437	25.32151031494137	1180.346069335938	251.1133728027343	15.36744689941408	1198.03759765625	-145.6394042968751	78.68308258056636	1204.588745117188	308.0578613281249	63.67679595947268	1232.808837890625	-202.6904296875001	283.8959655761719	1040.990600585938	217.3381195068359	273.5240173339843	1028.009765625	299.1957092285156	251.169418334961	1058.895874023438	-127.5347671508789	231.9408874511719	1047.860717773438	-206.2752227783203	329.5838012695312	1034.55078125	-221.7362365722657	375.7339477539062	1032.088134765625	301.1316833496094	
1640	13.65833333333333	151.6481781005859	1560.460327148438	121.3435058593749	132.7251586914062	1563.481201171875	-30.78449821472176	43.11949539184569	1634.940795898438	139.9663696289061	16.55885314941406	1654.136352539062	-6.001348495483498	-105.5878982543945	1552.48974609375	61.4601936340331	-62.05710601806641	1398.328857421875	55.90095520019522	-46.47428512573245	1478.956665039062	231.4682006835937	-67.45285034179686	1511.11572265625	-122.8096923828126	-162.3123321533203	1260.175170898438	52.20444107055654	-320.7396545410156	1452.189331054688	47.08787155151354	-523.8590087890625	1267.278686523438	111.206817626953	-522.8553466796875	1261.151733398438	-11.45993041992202	-375.454345703125	1203.5947265625	176.7089691162108	-374.7649536132812	1179.966430664062	-67.24573516845714	-47.03161239624025	877.9715576171875	125.0247573852538	-174.2303619384766	698.3265380859375	-51.51098632812506	-60.47993469238284	914.9705810546875	236.7727508544921	-172.6364593505859	747.15478515625	-159.378631591797	-409.6832885742188	405.0648193359375	-57.1057434082032	-157.2502593994141	522.3374633789062	115.5077285766601	-436.1790161132812	388.7909240722656	-142.508270263672	-184.6817321777344	502.7335510253906	203.0569458007812	-293.6018981933594	238.0068359375	-97.4897079467774	8.814585685729963	414.2713012695312	148.9260864257812	-506.4105529785156	398.2937927246094	-97.85785675048837	-256.8902893066406	476.1132507324219	157.757095336914	25.27975273132321	1180.385375976562	250.7084045410155	15.25766372680666	1197.904174804688	-146.0168457031251	78.61938476562496	1204.6474609375	307.6379699707031	63.56053161621096	1232.720458984375	-202.9849853515626	283.8968811035156	1040.975952148438	217.1859436035156	273.4862976074218	1028.085083007812	299.0266723632812	251.1353759765625	1058.899780273438	-127.6828994750977	231.8712158203125	1047.807739257812	-206.3344268798828	329.5695190429688	1034.5078125	-221.8557281494141	375.7103271484374	1032.136840820312	301.0112915039062	
